<svg xmlns="http://www.w3.org/2000/svg" width="65" height="64" fill="none" viewBox="0 0 65 64"><g clip-path="url(#clip0_79_267)"><path fill="#E1E1E1" stroke="#E1E1E1" stroke-linejoin="round" d="M27.1123 23.2453H34.9614C39.7916 23.2453 39.7916 28.0755 34.9614 28.0755H27.1123V23.2453ZM8.39532 45.5849H32.5463V38.9434H27.1123V34.1132H33.15C39.7916 34.1132 36.1689 45.5849 41.6029 45.5849H56.6972V34.1132H53.0746V35.3207C53.0746 40.1509 47.6406 39.5472 47.0368 36.5283C46.4331 33.5094 44.018 31.0943 43.4142 31.0943C52.4708 26.2641 47.0368 16.6038 39.7916 16.6038H11.4142V23.2453H17.4519V38.9434H8.39532V45.5849Z"/><path stroke="#E1E1E1" stroke-width="9" d="M32.2444 57.9622C46.5829 57.9622 58.2066 46.3385 58.2066 32C58.2066 17.6614 46.5829 6.03772 32.2444 6.03772C17.9058 6.03772 6.28212 17.6614 6.28212 32C6.28212 46.3385 17.9058 57.9622 32.2444 57.9622Z"/><path fill="#E1E1E1" stroke="#E1E1E1" stroke-linejoin="round" stroke-width="3" d="M60.018 33.8112L63.0368 31.9999L60.018 30.1886V33.8112Z"/><path fill="#E1E1E1" stroke="#E1E1E1" stroke-linejoin="round" stroke-width="3" d="M59.1309 39.1949L62.4452 38.0073L59.8377 35.6418L59.1309 39.1949Z"/><path fill="#E1E1E1" stroke="#E1E1E1" stroke-linejoin="round" stroke-width="3" d="M57.2107 44.302L60.6929 43.7838L58.597 40.9551L57.2107 44.302Z"/><path fill="#E1E1E1" stroke="#E1E1E1" stroke-linejoin="round" stroke-width="3" d="M54.331 48.9362L57.8474 49.1073L56.3436 45.9241L54.331 48.9362Z"/><path fill="#E1E1E1" stroke="#E1E1E1" stroke-linejoin="round" stroke-width="3" d="M50.6025 52.9196L54.0179 53.7735L53.1641 50.358L50.6025 52.9196Z"/><path fill="#E1E1E1" stroke="#E1E1E1" stroke-linejoin="round" stroke-width="3" d="M46.1685 56.0992L49.3518 57.603L49.1806 54.0865L46.1685 56.0992Z"/><path fill="#E1E1E1" stroke="#E1E1E1" stroke-linejoin="round" stroke-width="3" d="M41.1994 58.3526L44.0282 60.4485L44.5463 56.9663L41.1994 58.3526Z"/><path fill="#E1E1E1" stroke="#E1E1E1" stroke-linejoin="round" stroke-width="3" d="M35.8862 59.5932L38.2517 62.2007L39.4393 58.8865L35.8862 59.5932Z"/><path fill="#E1E1E1" stroke="#E1E1E1" stroke-linejoin="round" stroke-width="3" d="M30.4331 59.7736L32.2444 62.7924L34.0557 59.7736H30.4331Z"/><path fill="#E1E1E1" stroke="#E1E1E1" stroke-linejoin="round" stroke-width="3" d="M25.0495 58.8865L26.2371 62.2008L28.6025 59.5933L25.0495 58.8865Z"/><path fill="#E1E1E1" stroke="#E1E1E1" stroke-linejoin="round" stroke-width="3" d="M19.9425 56.9662L20.4606 60.4484L23.2893 58.3525L19.9425 56.9662Z"/><path fill="#E1E1E1" stroke="#E1E1E1" stroke-linejoin="round" stroke-width="3" d="M15.3082 54.0865L15.137 57.6029L18.3203 56.0991L15.3082 54.0865Z"/><path fill="#E1E1E1" stroke="#E1E1E1" stroke-linejoin="round" stroke-width="3" d="M11.3247 50.3581L10.4708 53.7735L13.8863 52.9197L11.3247 50.3581Z"/><path fill="#E1E1E1" stroke="#E1E1E1" stroke-linejoin="round" stroke-width="3" d="M8.14517 45.924L6.64139 49.1073L10.1578 48.9362L8.14517 45.924Z"/><path fill="#E1E1E1" stroke="#E1E1E1" stroke-linejoin="round" stroke-width="3" d="M5.89178 40.955L3.79587 43.7837L7.27811 44.3019L5.89178 40.955Z"/><path fill="#E1E1E1" stroke="#E1E1E1" stroke-linejoin="round" stroke-width="3" d="M4.65109 35.6418L2.0436 38.0073L5.35783 39.1948L4.65109 35.6418Z"/><path fill="#E1E1E1" stroke="#E1E1E1" stroke-linejoin="round" stroke-width="3" d="M4.47081 30.1886L1.45194 32L4.47081 33.8113V30.1886Z"/><path fill="#E1E1E1" stroke="#E1E1E1" stroke-linejoin="round" stroke-width="3" d="M5.35783 24.8051L2.0436 25.9927L4.65109 28.3582L5.35783 24.8051Z"/><path fill="#E1E1E1" stroke="#E1E1E1" stroke-linejoin="round" stroke-width="3" d="M7.27811 19.698L3.79588 20.2162L5.89178 23.0449L7.27811 19.698Z"/><path fill="#E1E1E1" stroke="#E1E1E1" stroke-linejoin="round" stroke-width="3" d="M10.1578 15.0637L6.64139 14.8926L8.14517 18.0758L10.1578 15.0637Z"/><path fill="#E1E1E1" stroke="#E1E1E1" stroke-linejoin="round" stroke-width="3" d="M13.8863 11.0803L10.4708 10.2264L11.3247 13.6418L13.8863 11.0803Z"/><path fill="#E1E1E1" stroke="#E1E1E1" stroke-linejoin="round" stroke-width="3" d="M18.3203 7.90082L15.137 6.39704L15.3082 9.91345L18.3203 7.90082Z"/><path fill="#E1E1E1" stroke="#E1E1E1" stroke-linejoin="round" stroke-width="3" d="M23.2893 5.64737L20.4606 3.55146L19.9425 7.03369L23.2893 5.64737Z"/><path fill="#E1E1E1" stroke="#E1E1E1" stroke-linejoin="round" stroke-width="3" d="M28.6025 4.40666L26.2371 1.79917L25.0495 5.1134L28.6025 4.40666Z"/><path fill="#E1E1E1" stroke="#E1E1E1" stroke-linejoin="round" stroke-width="3" d="M34.0557 4.22644L32.2444 1.20757L30.4331 4.22644L34.0557 4.22644Z"/><path fill="#E1E1E1" stroke="#E1E1E1" stroke-linejoin="round" stroke-width="3" d="M39.4393 5.11348L38.2517 1.79925L35.8862 4.40674L39.4393 5.11348Z"/><path fill="#E1E1E1" stroke="#E1E1E1" stroke-linejoin="round" stroke-width="3" d="M44.5463 7.03366L44.0281 3.55143L41.1994 5.64734L44.5463 7.03366Z"/><path fill="#E1E1E1" stroke="#E1E1E1" stroke-linejoin="round" stroke-width="3" d="M49.1806 9.91339L49.3518 6.39698L46.1685 7.90076L49.1806 9.91339Z"/><path fill="#E1E1E1" stroke="#E1E1E1" stroke-linejoin="round" stroke-width="3" d="M53.1641 13.6419L54.0179 10.2265L50.6025 11.0803L53.1641 13.6419Z"/><path fill="#E1E1E1" stroke="#E1E1E1" stroke-linejoin="round" stroke-width="3" d="M56.3436 18.0758L57.8474 14.8926L54.331 15.0637L56.3436 18.0758Z"/><path fill="#E1E1E1" stroke="#E1E1E1" stroke-linejoin="round" stroke-width="3" d="M58.597 23.0449L60.6929 20.2162L57.2107 19.698L58.597 23.0449Z"/><path fill="#E1E1E1" stroke="#E1E1E1" stroke-linejoin="round" stroke-width="3" d="M59.8377 28.3581L62.4452 25.9926L59.1309 24.8051L59.8377 28.3581Z"/><path fill="#E1E1E1" stroke="#E1E1E1" stroke-linejoin="round" stroke-width="6" d="M28.018 6.64148L32.2444 10.8679L36.4708 6.64148H28.018Z"/><path fill="#E1E1E1" stroke="#E1E1E1" stroke-linejoin="round" stroke-width="6" d="M55.0557 20.1442L52.3422 25.4698L57.6678 28.1833L55.0557 20.1442Z"/><path fill="#E1E1E1" stroke="#E1E1E1" stroke-linejoin="round" stroke-width="6" d="M50.569 50.0312L44.6655 49.0962L43.7305 54.9997L50.569 50.0312Z"/><path fill="#E1E1E1" stroke="#E1E1E1" stroke-linejoin="round" stroke-width="6" d="M20.7583 54.9996L19.8233 49.0962L13.9198 50.0312L20.7583 54.9996Z"/><path fill="#E1E1E1" stroke="#E1E1E1" stroke-linejoin="round" stroke-width="6" d="M6.821 28.1833L12.1466 25.4698L9.43307 20.1442L6.821 28.1833Z"/></g><defs><clipPath id="clip0_79_267"><rect width="64" height="64" fill="#fff" transform="translate(0.244385)"/></clipPath></defs></svg>