<svg xmlns="http://www.w3.org/2000/svg" xmlns:xlink="http://www.w3.org/1999/xlink" width="100%" height="100%" version="1.1" viewBox="0 0 577 789" xml:space="preserve" style="fill-rule:evenodd;clip-rule:evenodd;stroke-linejoin:round;stroke-miterlimit:2"><rect id="Artboard1" width="576.746" height="788.301" x="0" y="0" style="fill:none"/><g><path d="M400.936,11.592c0.789,-3.177 -0.719,-6.478 -3.636,-7.962c-2.917,-1.484 -6.473,-0.758 -8.576,1.75c-73.055,87.126 -328.754,392.076 -384.393,458.432c-1.949,2.325 -2.376,5.568 -1.096,8.318c1.281,2.75 4.038,4.51 7.071,4.515c56.958,0.08 239.944,0.337 239.944,0.337c-0,0 -54.305,217.945 -74.411,298.642c-0.792,3.177 0.714,6.48 3.632,7.966c2.919,1.485 6.476,0.76 8.579,-1.75c73.07,-87.188 328.452,-391.914 384.16,-458.386c1.952,-2.329 2.376,-5.578 1.088,-8.33c-1.288,-2.752 -4.055,-4.507 -7.094,-4.5c-57.013,0.128 -239.664,0.541 -239.664,0.541c-0,0 54.331,-218.777 74.396,-299.573Z" style="fill:#4694e6"/><path d="M319.503,311.27c0,-0 59.081,-219.187 80.824,-299.852c0.776,-2.882 -0.578,-5.914 -3.242,-7.26c-2.664,-1.346 -5.908,-0.638 -7.768,1.697c-34.54,43.387 -106.071,133.183 -125.767,157.435c-3.052,3.758 -10.817,15.546 -14.248,28.725c-2.612,10.036 -3.631,16.961 -4.565,24.963c-2.134,18.272 1.885,37.576 5.688,48.646c3.146,9.157 7.435,21.098 20.425,31.222c6.332,4.936 16.758,10.662 25.339,12.242c8.42,1.551 23.314,2.182 23.314,2.182Z" style="fill:url(#_Linear1)"/><path d="M257.457,475.685c0,-0 -59.239,219.688 -80.927,300.12c-0.769,2.855 0.572,5.858 3.211,7.191c2.639,1.334 5.852,0.633 7.695,-1.679c34.478,-43.295 106.245,-133.358 125.975,-157.652c3.052,-3.759 10.817,-15.547 14.248,-28.726c2.612,-10.036 3.631,-16.961 4.565,-24.962c2.134,-18.273 -1.885,-37.576 -5.689,-48.647c-3.146,-9.157 -7.434,-21.098 -20.424,-31.222c-6.332,-4.935 -16.758,-10.662 -25.339,-12.242c-8.42,-1.551 -23.315,-2.181 -23.315,-2.181Z" style="fill:url(#_Linear2)"/></g><defs><linearGradient id="_Linear1" x1="0" x2="1" y1="0" y2="0" gradientTransform="matrix(113.333,-217.926,217.926,113.333,247.654,297.395)" gradientUnits="userSpaceOnUse"><stop offset="0" style="stop-color:#0c78d0;stop-opacity:1"/><stop offset="1" style="stop-color:#4694e6;stop-opacity:1"/></linearGradient><linearGradient id="_Linear2" x1="0" x2="1" y1="0" y2="0" gradientTransform="matrix(-113.333,217.926,-217.926,-113.333,329.306,489.56)" gradientUnits="userSpaceOnUse"><stop offset="0" style="stop-color:#0c78d0;stop-opacity:1"/><stop offset="1" style="stop-color:#4694e6;stop-opacity:1"/></linearGradient></defs></svg>